<svg xmlns="http://www.w3.org/2000/svg" xmlns:xlink="http://www.w3.org/1999/xlink" width="500" zoomAndPan="magnify" viewBox="0 0 375 374.999991" height="500" preserveAspectRatio="xMidYMid meet" version="1.2"><defs/><g id="2df7ed5a17"><g style="fill:#000000;fill-opacity:1;"><g transform="translate(34.797168, 157.986007)"><path style="stroke:none" d="M 37.625 -81.28125 C 40.800781 -81.28125 43.6875 -80.488281 46.28125 -78.90625 C 48.875 -77.320312 50.941406 -75.210938 52.484375 -72.578125 C 54.035156 -69.941406 54.8125 -67.039062 54.8125 -63.875 L 54.8125 -57.59375 C 54.8125 -53.644531 53.648438 -50.101562 51.328125 -46.96875 C 49.003906 -43.832031 46.023438 -41.722656 42.390625 -40.640625 C 46.023438 -39.554688 49.003906 -37.445312 51.328125 -34.3125 C 53.648438 -31.175781 54.8125 -27.632812 54.8125 -23.6875 L 54.8125 -17.421875 C 54.8125 -14.242188 54.035156 -11.335938 52.484375 -8.703125 C 50.941406 -6.078125 48.875 -3.96875 46.28125 -2.375 C 43.6875 -0.789062 40.800781 0 37.625 0 L 1.15625 0 L 1.15625 -2.328125 L 4.40625 -2.328125 L 4.40625 -78.96875 L 1.15625 -78.96875 L 1.15625 -81.28125 Z M 20.671875 -78.96875 L 20.671875 -41.8125 L 28.109375 -41.8125 C 31.046875 -41.8125 33.519531 -42.875 35.53125 -45 C 37.539062 -47.125 38.546875 -49.695312 38.546875 -52.71875 L 38.546875 -68.28125 C 38.546875 -71.21875 37.539062 -73.734375 35.53125 -75.828125 C 33.519531 -77.921875 31.046875 -78.96875 28.109375 -78.96875 Z M 20.671875 -39.484375 L 20.671875 -2.328125 L 28.109375 -2.328125 C 31.046875 -2.328125 33.519531 -3.367188 35.53125 -5.453125 C 37.539062 -7.546875 38.546875 -10.0625 38.546875 -13 L 38.546875 -28.5625 C 38.546875 -31.582031 37.539062 -34.15625 35.53125 -36.28125 C 33.519531 -38.414062 31.046875 -39.484375 28.109375 -39.484375 Z M 20.671875 -39.484375 "/></g></g><g style="fill:#000000;fill-opacity:1;"><g transform="translate(92.86006, 157.986007)"><path style="stroke:none" d="M 1.15625 -78.96875 L 1.15625 -81.28125 L 18.8125 -81.28125 L 18.8125 -2.328125 L 22.0625 -2.328125 L 22.0625 0 L 1.15625 0 L 1.15625 -2.328125 L 4.40625 -2.328125 L 4.40625 -78.96875 Z M 1.15625 -78.96875 "/></g></g><g style="fill:#000000;fill-opacity:1;"><g transform="translate(116.085217, 157.986007)"><path style="stroke:none" d="M 23 -59.921875 C 29.269531 -59.921875 34.066406 -58.488281 37.390625 -55.625 C 40.722656 -52.757812 42.390625 -48.695312 42.390625 -43.4375 L 42.390625 -2.328125 L 45.515625 -2.328125 L 45.515625 0 L 32.28125 0 L 28.6875 -4.53125 C 26.75 -0.269531 22.800781 1.859375 16.84375 1.859375 C 7.9375 1.859375 3.484375 -2.785156 3.484375 -12.078125 L 3.484375 -25.546875 C 3.484375 -30.035156 4.625 -33.476562 6.90625 -35.875 C 9.1875 -38.28125 12.5 -39.484375 16.84375 -39.484375 C 21.945312 -39.484375 25.625 -37.78125 27.875 -34.375 L 27.875 -52.609375 C 27.875 -53.992188 27.503906 -55.171875 26.765625 -56.140625 C 26.023438 -57.109375 24.769531 -57.59375 23 -57.59375 C 21.21875 -57.59375 19.9375 -57.109375 19.15625 -56.140625 C 18.382812 -55.171875 18 -53.992188 18 -52.609375 L 18 -42.265625 L 3.484375 -42.265625 L 3.484375 -43.4375 C 3.484375 -48.695312 5.164062 -52.757812 8.53125 -55.625 C 11.90625 -58.488281 16.726562 -59.921875 23 -59.921875 Z M 27.875 -16.71875 L 27.875 -28.796875 C 27.875 -30.191406 27.503906 -31.351562 26.765625 -32.28125 C 26.023438 -33.207031 24.769531 -33.671875 23 -33.671875 C 21.132812 -33.671875 19.832031 -33.207031 19.09375 -32.28125 C 18.363281 -31.351562 18 -30.191406 18 -28.796875 L 18 -8.9375 C 18 -7.46875 18.363281 -6.269531 19.09375 -5.34375 C 19.832031 -4.414062 21.132812 -3.953125 23 -3.953125 C 24.851562 -3.953125 26.128906 -4.429688 26.828125 -5.390625 C 27.523438 -6.359375 27.875 -7.539062 27.875 -8.9375 Z M 27.875 -16.71875 "/></g></g><g style="fill:#000000;fill-opacity:1;"><g transform="translate(162.767797, 157.986007)"><path style="stroke:none" d="M 23 -59.921875 C 29.269531 -59.921875 34.066406 -58.410156 37.390625 -55.390625 C 40.722656 -52.367188 42.390625 -48.070312 42.390625 -42.5 L 42.390625 -36.234375 L 27.875 -36.234375 L 27.875 -52.609375 C 27.875 -53.992188 27.503906 -55.171875 26.765625 -56.140625 C 26.023438 -57.109375 24.769531 -57.59375 23 -57.59375 C 21.21875 -57.59375 19.9375 -57.109375 19.15625 -56.140625 C 18.382812 -55.171875 18 -53.992188 18 -52.609375 L 18 -5.453125 C 18 -4.066406 18.382812 -2.890625 19.15625 -1.921875 C 19.9375 -0.953125 21.21875 -0.46875 23 -0.46875 C 24.769531 -0.46875 26.023438 -0.953125 26.765625 -1.921875 C 27.503906 -2.890625 27.875 -4.066406 27.875 -5.453125 L 27.875 -21.828125 L 42.390625 -21.828125 L 42.390625 -15.5625 C 42.390625 -9.988281 40.722656 -5.691406 37.390625 -2.671875 C 34.066406 0.347656 29.269531 1.859375 23 1.859375 C 16.726562 1.859375 11.90625 0.347656 8.53125 -2.671875 C 5.164062 -5.691406 3.484375 -9.988281 3.484375 -15.5625 L 3.484375 -42.5 C 3.484375 -48.070312 5.164062 -52.367188 8.53125 -55.390625 C 11.90625 -58.410156 16.726562 -59.921875 23 -59.921875 Z M 23 -59.921875 "/></g></g><g style="fill:#000000;fill-opacity:1;"><g transform="translate(208.056862, 157.986007)"><path style="stroke:none" d="M 1.15625 -78.96875 L 1.15625 -81.28125 L 18.8125 -81.28125 L 18.8125 -30.1875 L 21.140625 -30.1875 L 42.03125 -55.734375 L 38.78125 -55.734375 L 38.78125 -58.0625 L 48.3125 -58.0625 L 48.3125 -55.734375 L 44.828125 -55.734375 L 32.28125 -39.484375 L 44.828125 -2.328125 L 48.078125 -2.328125 L 48.078125 0 L 27.171875 0 L 27.171875 -2.328125 L 30.3125 -2.328125 L 20.671875 -27.875 L 18.8125 -27.875 L 18.8125 -2.328125 L 22.0625 -2.328125 L 22.0625 0 L 1.15625 0 L 1.15625 -2.328125 L 4.40625 -2.328125 L 4.40625 -78.96875 Z M 1.15625 -78.96875 "/></g></g><g style="fill:#000000;fill-opacity:1;"><g transform="translate(134.762866, 280.065099)"><path style="stroke:none" d="M 1.375 -93.375 L 1.375 -96.125 L 35.015625 -96.125 L 35.015625 -23.34375 C 35.015625 -15.375 33.019531 -9.488281 29.03125 -5.6875 C 25.050781 -1.894531 19.359375 0 11.953125 0 L 1.375 0 L 1.375 -2.75 L 3.703125 -2.75 C 8.285156 -2.75 11.445312 -3.960938 13.1875 -6.390625 C 14.925781 -8.816406 15.796875 -11.722656 15.796875 -15.109375 L 15.796875 -93.375 Z M 1.375 -93.375 "/></g></g><g style="fill:#000000;fill-opacity:1;"><g transform="translate(173.759451, 280.065099)"><path style="stroke:none" d="M 27.1875 -70.859375 C 34.601562 -70.859375 40.28125 -69.160156 44.21875 -65.765625 C 48.15625 -62.378906 50.125 -57.578125 50.125 -51.359375 L 50.125 -2.75 L 53.828125 -2.75 L 53.828125 0 L 38.171875 0 L 33.921875 -5.359375 C 31.628906 -0.316406 26.957031 2.203125 19.90625 2.203125 C 9.382812 2.203125 4.125 -3.289062 4.125 -14.28125 L 4.125 -30.203125 C 4.125 -35.515625 5.472656 -39.585938 8.171875 -42.421875 C 10.867188 -45.265625 14.78125 -46.6875 19.90625 -46.6875 C 25.945312 -46.6875 30.296875 -44.671875 32.953125 -40.640625 L 32.953125 -62.203125 C 32.953125 -63.847656 32.515625 -65.242188 31.640625 -66.390625 C 30.773438 -67.535156 29.289062 -68.109375 27.1875 -68.109375 C 25.082031 -68.109375 23.570312 -67.535156 22.65625 -66.390625 C 21.738281 -65.242188 21.28125 -63.847656 21.28125 -62.203125 L 21.28125 -49.984375 L 4.125 -49.984375 L 4.125 -51.359375 C 4.125 -57.578125 6.113281 -62.378906 10.09375 -65.765625 C 14.070312 -69.160156 19.769531 -70.859375 27.1875 -70.859375 Z M 32.953125 -19.765625 L 32.953125 -34.046875 C 32.953125 -35.703125 32.515625 -37.078125 31.640625 -38.171875 C 30.773438 -39.273438 29.289062 -39.828125 27.1875 -39.828125 C 24.988281 -39.828125 23.453125 -39.273438 22.578125 -38.171875 C 21.710938 -37.078125 21.28125 -35.703125 21.28125 -34.046875 L 21.28125 -10.578125 C 21.28125 -8.835938 21.710938 -7.414062 22.578125 -6.3125 C 23.453125 -5.21875 24.988281 -4.671875 27.1875 -4.671875 C 29.382812 -4.671875 30.894531 -5.238281 31.71875 -6.375 C 32.539062 -7.519531 32.953125 -8.921875 32.953125 -10.578125 Z M 32.953125 -19.765625 "/></g></g><g style="fill:#000000;fill-opacity:1;"><g transform="translate(228.958852, 280.065099)"><path style="stroke:none" d="M 27.1875 -70.859375 C 34.601562 -70.859375 40.28125 -69.070312 44.21875 -65.5 C 48.15625 -61.925781 50.125 -56.84375 50.125 -50.25 L 50.125 -42.84375 L 32.953125 -42.84375 L 32.953125 -62.203125 C 32.953125 -63.847656 32.515625 -65.242188 31.640625 -66.390625 C 30.773438 -67.535156 29.289062 -68.109375 27.1875 -68.109375 C 25.082031 -68.109375 23.570312 -67.535156 22.65625 -66.390625 C 21.738281 -65.242188 21.28125 -63.847656 21.28125 -62.203125 L 21.28125 -6.453125 C 21.28125 -4.804688 21.738281 -3.410156 22.65625 -2.265625 C 23.570312 -1.117188 25.082031 -0.546875 27.1875 -0.546875 C 29.289062 -0.546875 30.773438 -1.117188 31.640625 -2.265625 C 32.515625 -3.410156 32.953125 -4.804688 32.953125 -6.453125 L 32.953125 -25.8125 L 50.125 -25.8125 L 50.125 -18.40625 C 50.125 -11.8125 48.15625 -6.726562 44.21875 -3.15625 C 40.28125 0.414062 34.601562 2.203125 27.1875 2.203125 C 19.769531 2.203125 14.070312 0.414062 10.09375 -3.15625 C 6.113281 -6.726562 4.125 -11.8125 4.125 -18.40625 L 4.125 -50.25 C 4.125 -56.84375 6.113281 -61.925781 10.09375 -65.5 C 14.070312 -69.070312 19.769531 -70.859375 27.1875 -70.859375 Z M 27.1875 -70.859375 "/></g></g><g style="fill:#000000;fill-opacity:1;"><g transform="translate(282.510503, 280.065099)"><path style="stroke:none" d="M 1.375 -93.375 L 1.375 -96.125 L 22.25 -96.125 L 22.25 -35.703125 L 24.984375 -35.703125 L 49.703125 -65.90625 L 45.859375 -65.90625 L 45.859375 -68.65625 L 57.125 -68.65625 L 57.125 -65.90625 L 53 -65.90625 L 38.171875 -46.6875 L 53 -2.75 L 56.84375 -2.75 L 56.84375 0 L 32.125 0 L 32.125 -2.75 L 35.84375 -2.75 L 24.4375 -32.953125 L 22.25 -32.953125 L 22.25 -2.75 L 26.09375 -2.75 L 26.09375 0 L 1.375 0 L 1.375 -2.75 L 5.21875 -2.75 L 5.21875 -93.375 Z M 1.375 -93.375 "/></g></g></g></svg>